<svg xmlns="http://www.w3.org/2000/svg" xmlns:xlink="http://www.w3.org/1999/xlink" version="1.1" x="0px" y="0px" viewBox="0 0 100 125" style="enable-background:new 0 0 100 100;" xml:space="preserve">
	<g>
		<path d="M85.1,47.2c2.3-1.9,3.7-4.8,3.7-8c0-5.8-4.7-10.6-10.6-10.6c-5.8,0-10.6,4.7-10.6,10.6c0,3.2,1.4,6.1,3.7,8   c-2,1-3.8,2.4-5.3,4.2c-2.2-2.3-4.9-4.1-7.8-5.3c3.9-2.6,6.5-7.1,6.5-12.2c0-8.1-6.6-14.7-14.7-14.7s-14.7,6.6-14.7,14.7   c0,5.1,2.6,9.5,6.5,12.2c-3,1.2-5.7,3-7.8,5.3c-1.4-1.7-3.2-3.2-5.3-4.2c2.3-1.9,3.7-4.8,3.7-8c0-5.8-4.7-10.6-10.6-10.6   s-10.6,4.7-10.6,10.6c0,3.2,1.4,6.1,3.7,8C9.7,49.8,6,55.2,6,61.4V67L7,67.6c3.5,2.4,8.9,3.7,14.8,3.7c2,0,4-0.2,5.8-0.5v3.9   l0.9,0.6c4.9,3.4,12.9,5.4,21.5,5.4s16.5-2,21.5-5.4l0.9-0.6v-3.9c1.8,0.3,3.8,0.5,5.8,0.5c5.9,0,11.3-1.4,14.8-3.7L94,67v-5.6   C94,55.2,90.3,49.8,85.1,47.2z M89.7,64.7c-2.8,1.5-7,2.4-11.5,2.4c-2.1,0-4-0.2-5.8-0.5c-0.1-4.3-1.4-8.4-3.6-11.8   c2.1-3,5.5-4.9,9.4-4.9c6.3,0,11.5,5.2,11.5,11.5V64.7z M50,76.5c-7.2,0-13.8-1.5-18.2-4v-5.6c0-10,8.1-18.2,18.2-18.2   s18.2,8.1,18.2,18.2v5.6C63.8,75,57.2,76.5,50,76.5z M10.3,61.4c0-6.3,5.2-11.5,11.5-11.5c3.9,0,7.3,2,9.4,4.9   c-2.2,3.4-3.5,7.4-3.6,11.8c-1.8,0.3-3.8,0.5-5.8,0.5c-4.5,0-8.7-0.9-11.5-2.4V61.4z M15.4,39.2c0-3.5,2.8-6.3,6.3-6.3   s6.3,2.8,6.3,6.3c0,3.5-2.8,6.3-6.3,6.3S15.4,42.7,15.4,39.2z M60.5,33.9c0,5.8-4.7,10.5-10.5,10.5s-10.5-4.7-10.5-10.5   S44.2,23.5,50,23.5S60.5,28.2,60.5,33.9z M71.9,39.2c0-3.5,2.8-6.3,6.3-6.3s6.3,2.8,6.3,6.3c0,3.5-2.8,6.3-6.3,6.3   S71.9,42.7,71.9,39.2z"/>
	</g>
</svg>